<svg width="73" height="61" viewBox="0 0 73 61" fill="none" xmlns="http://www.w3.org/2000/svg">
<path d="M68.2119 11.3508C71.656 13.9462 74.0755 18.1865 72.517 20.9795C71.3505 23.0441 57.861 49.9211 50.9821 54.5718C42.8965 60.0466 9.93671 60.8675 9.26394 60.9015C7.50177 60.9879 0.817253 51.1617 0.233978 44.8537C-0.27832 39.3542 2.35721 33.9195 2.53621 33.1264C2.7152 32.3333 19.3833 35.2867 19.3833 35.2867L32.2339 51.2172L68.2119 11.3508Z" fill="#3B3B4D"/>
<path d="M1.58257 32.8301C-4.25019 49.2668 7.7764 59.201 9.67127 59.0621C31.2155 57.6086 42.0138 56.513 46.8621 54.2725C51.7104 52.032 74.3285 24.1581 71.1467 15.5973C68.6501 8.84483 52.5374 0 52.5374 0C52.5374 0 42.3008 30.4044 35.6934 30.7254C29.086 31.0463 2.7985 29.4076 1.58257 32.8301Z" fill="#545466"/>
<path d="M53.0437 3.57373C57.2655 7.68444 69.2026 13.9585 69.0915 16.9058C68.7181 25.7629 50.9698 49.2545 50.007 47.5509C49.0441 45.8474 38.5328 31.716 39.8722 30.5402C43.8841 26.9819 53.0437 3.57373 53.0437 3.57373Z" fill="white"/>
<path d="M35.8138 32.8394C39.1684 42.1162 45.998 48.3378 44.8438 49.813C43.6896 51.2882 22.0621 55.6118 20.6486 54.0904C19.2352 52.5689 11.1835 33.4411 11.8624 32.7961C12.5414 32.1511 35.8138 32.8394 35.8138 32.8394Z" fill="#3B3B4D"/>
<path d="M12.0969 39.9807C13.1555 44.9987 16.1552 48.594 14.9269 49.5137C13.6986 50.4334 6.8783 51.8283 6.22404 51.1833C5.56978 50.5383 2.73984 43.1594 3.93725 40.3819C4.4372 39.203 11.2236 35.833 12.0969 39.9807Z" fill="#3B3B4D"/>
</svg>
