<svg width="88" height="93" viewBox="0 0 88 93" fill="none" xmlns="http://www.w3.org/2000/svg">
<path d="M66.0064 55.0833C70.4696 40.5396 69.4468 27.3254 63.7219 25.5685C57.997 23.8117 49.7379 34.1774 45.2747 48.7211C40.8115 63.2648 41.8343 76.479 47.5592 78.2358C53.2842 79.9927 61.5432 69.627 66.0064 55.0833Z" fill="#303646"/>
<path d="M64.3011 54.5607C68.7643 40.017 68.0773 26.9059 62.7667 25.2761C57.4561 23.6464 49.5328 34.1152 45.0696 48.6588C40.6064 63.2025 41.2934 76.3137 46.604 77.9434C51.9147 79.5731 59.8379 69.1043 64.3011 54.5607Z" fill="white"/>
<path d="M62.6983 54.069C66.6431 41.2147 66.036 29.6266 61.3423 28.1862C56.6487 26.7458 49.6459 35.9986 45.7012 48.8529C41.7564 61.7071 42.3635 73.2952 47.0572 74.7356C51.7508 76.176 58.7536 66.9232 62.6983 54.069Z" fill="#CD2B31"/>
<path d="M60.7034 53.4539C63.9146 42.9899 63.4203 33.5564 59.5993 32.3838C55.7782 31.2112 50.0775 38.7435 46.8662 49.2076C43.655 59.6717 44.1493 69.1051 47.9703 70.2777C51.7913 71.4503 57.4921 63.918 60.7034 53.4539Z" fill="white"/>
<path d="M59.4077 52.5079C62.0199 44.0104 61.6219 36.3484 58.5188 35.3945C55.4157 34.4406 50.7825 40.5559 48.1703 49.0535C45.558 57.551 45.956 65.213 49.0591 66.1669C52.1623 67.1208 56.7955 61.0055 59.4077 52.5079Z" fill="#CD2B31"/>
<path d="M56.6904 52.2246C58.4347 46.5408 58.1659 41.4168 56.0902 40.7797C54.0144 40.1427 50.9176 44.2339 49.1734 49.9177C47.4291 55.6015 47.6979 60.7255 49.7737 61.3625C51.8494 61.9996 54.9462 57.9084 56.6904 52.2246Z" fill="white"/>
<path d="M55.3449 51.2595C56.2261 48.3931 56.0915 45.8085 55.0444 45.4866C53.9973 45.1647 52.4341 47.2274 51.553 50.0938C50.6718 52.9601 50.8064 55.5447 51.8535 55.8666C52.9006 56.1885 54.4638 54.1258 55.3449 51.2595Z" fill="#CD2B31"/>
<path d="M50.0144 47.2201C49.3851 48.0194 47.4945 50.1795 47.5359 50.545C47.5773 50.9105 50.0224 50.1812 50.1428 49.5542C50.2633 48.9272 50.0144 47.2201 50.0144 47.2201Z" fill="#BAB3B4"/>
<path d="M5.01541 26.5357C5.24665 26.445 8.06452 25.4308 8.70068 25.5717C9.13215 25.6921 9.52633 25.9192 9.8468 26.2322C8.02262 27.1478 6.89694 27.7112 6.06605 27.2456C5.63417 27.0018 5.30653 26.8427 5.12276 26.7357C4.93899 26.6287 4.90418 26.5812 5.01541 26.5357Z" fill="white"/>
<path opacity="0.09" d="M5.01557 26.5356C5.24682 26.4449 8.06468 25.4306 8.70084 25.5716C8.52291 25.9427 6.12279 27.2021 5.12292 26.7356C4.9557 26.6352 4.90435 26.581 5.01557 26.5356Z" fill="#1F1F39"/>
<path d="M3.91717 25.8781C4.14494 25.7856 6.9663 24.7732 7.599 24.9123C8.03963 25.0388 8.44038 25.2764 8.76283 25.6023C6.93864 26.5179 5.79928 27.0651 4.96514 26.5889C4.53511 26.3416 4.20832 26.1851 4.02455 26.0781C3.84078 25.9712 3.80513 25.9209 3.91717 25.8781Z" fill="white"/>
<path opacity="0.09" d="M3.91705 25.878C4.14482 25.7855 6.96619 24.7731 7.59888 24.9122C7.42094 25.2833 6.09951 26.1593 4.02443 26.078C3.85189 25.9793 3.80501 25.9208 3.91705 25.878Z" fill="#1F1F39"/>
<path d="M2.67251 25.0961C3.15351 25.0655 3.62635 24.957 4.07258 24.7749L4.0912 24.7692C5.03481 24.4007 6.03666 24.0611 6.35434 24.1302C6.82823 24.2839 7.25618 24.5536 7.59927 24.9148C5.7759 25.833 4.55543 26.2857 3.71967 25.8042C3.28965 25.5569 2.96285 25.4004 2.77908 25.2934L2.72191 25.2584C2.59716 25.183 2.57379 25.1348 2.67251 25.0961Z" fill="white"/>
<path opacity="0.09" d="M2.67251 25.0961C3.15351 25.0655 3.62635 24.957 4.07258 24.7749L4.0912 24.7692C5.0575 24.4084 6.07404 24.0788 6.39171 24.1479C6.21378 24.519 4.41762 25.3068 2.8146 25.3146L2.72272 25.2611C2.59716 25.183 2.57379 25.1348 2.67251 25.0961Z" fill="#1F1F39"/>
<path d="M1.4369 24.3321C1.66814 24.2414 4.486 23.2272 5.12136 23.3654C5.58867 23.5159 6.01206 23.7786 6.35452 24.1304C4.53033 25.0459 3.31901 25.5191 2.48754 25.042C2.05566 24.7982 1.72802 24.6391 1.54425 24.5321C1.36048 24.4251 1.32486 24.3749 1.4369 24.3321Z" fill="white"/>
<path opacity="0.23" d="M1.43706 24.332C1.66831 24.2413 4.48617 23.227 5.12152 23.3653C4.94359 23.7364 2.9121 23.9705 1.54441 24.532C1.37719 24.4316 1.32503 24.3748 1.43706 24.332Z" fill="#1F1F39"/>
<path d="M4.28104 22.667C4.34959 22.8482 4.46543 23.0078 4.6165 23.1291C5.49365 23.9093 49.0789 50.2442 49.189 50.4055C49.1971 50.4322 49.2464 50.4317 49.3058 50.4165C49.3885 50.3948 49.4673 50.36 49.5391 50.3136C49.9039 50.0979 50.3508 49.6071 49.8633 49.1709C49.8195 49.1309 49.7725 49.0946 49.7227 49.0624C49.7227 49.0624 6.3502 21.9736 5.49356 21.8823C4.81422 21.8097 4.11272 22.1423 4.28104 22.667Z" fill="#543237"/>
<path d="M8.59919 20.6205C8.62172 20.8667 8.99641 23.8384 9.40824 24.3413C9.71136 24.6723 10.0932 24.9213 10.5184 25.0652C10.5106 23.0317 10.5081 21.7616 9.70946 21.2396C9.29505 20.9672 9.0069 20.7466 8.82765 20.6354C8.6484 20.5241 8.58567 20.4996 8.59919 20.6205Z" fill="white"/>
<path opacity="0.09" d="M8.59932 20.6206C8.62185 20.8668 8.99654 23.8385 9.40836 24.3414C9.65978 24.0206 9.69383 21.3026 8.82535 20.6275C8.65755 20.5156 8.58579 20.4997 8.59932 20.6206Z" fill="#1F1F39"/>
<path d="M7.51301 19.936C7.53554 20.1822 7.91019 23.1539 8.32202 23.6568C8.63445 23.9916 9.02763 24.2405 9.46386 24.3797C9.45604 22.3463 9.4245 21.0763 8.62162 20.5498C8.20722 20.2774 7.91907 20.0568 7.73981 19.9456C7.56056 19.8343 7.50029 19.8177 7.51301 19.936Z" fill="white"/>
<path opacity="0.09" d="M7.51288 19.936C7.53541 20.1821 7.91006 23.1538 8.32189 23.6568C8.5733 23.336 8.75244 21.7546 7.73806 19.9402C7.57189 19.8337 7.50016 19.8177 7.51288 19.936Z" fill="#1F1F39"/>
<path d="M6.25134 19.1827C6.44346 19.6241 6.56185 20.0941 6.60182 20.5739C6.60182 20.5739 6.60587 20.5872 6.60829 20.5951C6.70757 21.6003 6.85766 22.6482 7.06571 22.9019C7.41714 23.2539 7.85071 23.5128 8.32731 23.6552C8.31948 21.6218 8.16816 20.3213 7.36528 19.7949C6.95007 19.5198 6.66195 19.2992 6.48617 19.1898L6.429 19.1548C6.29464 19.0765 6.24186 19.0751 6.25134 19.1827Z" fill="white"/>
<path opacity="0.09" d="M6.25129 19.1827C6.44341 19.6241 6.56181 20.0941 6.60177 20.5738C6.60177 20.5738 6.60582 20.5871 6.60825 20.5951C6.72465 21.6183 6.89128 22.6728 7.09852 22.9239C7.34994 22.6031 7.23471 20.6372 6.51551 19.2099L6.42733 19.1495C6.2946 19.0765 6.24182 19.0751 6.25129 19.1827Z" fill="#1F1F39"/>
<path d="M5.00915 18.4263C5.03249 18.6751 5.40718 21.6468 5.82086 22.1462C6.16575 22.4964 6.59139 22.7564 7.06035 22.9034C7.05253 20.87 6.91798 19.5673 6.12042 19.0392C5.70602 18.7669 5.41791 18.5462 5.23865 18.435C5.0594 18.3237 4.99909 18.3072 5.00915 18.4263Z" fill="white"/>
<path opacity="0.23" d="M5.00897 18.4262C5.03231 18.675 5.407 21.6467 5.82067 22.1462C6.07209 21.8254 5.35712 19.9053 5.23766 18.4322C5.07067 18.3231 4.99891 18.3071 5.00897 18.4262Z" fill="#1F1F39"/>
<path opacity="0.47" d="M4.28076 22.6671C4.34931 22.8484 4.46515 23.008 4.61622 23.1293C5.49337 23.9094 49.0786 50.2443 49.1887 50.4057C49.2209 50.4541 49.3716 50.414 49.5388 50.3137C44.4333 47.0391 8.33363 24.9765 4.28076 22.6671Z" fill="#1F1F39"/>
<path d="M47.4266 50.712C47.3817 51.2434 52.9176 52.2233 53.3506 51.9259L53.3693 51.9202C53.6651 51.583 50.2965 47.1634 50.0167 47.2282C49.7368 47.2929 49.6077 48.8474 49.2091 49.5736L49.1958 49.5776C48.7959 50.2897 47.455 50.337 47.4266 50.712Z" fill="white"/>
<path opacity="0.22" d="M47.4265 50.712C47.3816 51.2433 52.9176 52.2233 53.3506 51.9258C51.7199 50.6478 50.1286 49.8144 49.1965 49.5803C48.7958 50.2896 47.4549 50.3369 47.4265 50.712Z" fill="#1F1F39"/>
</svg>
