<svg width="59" height="54" viewBox="0 0 59 54" fill="none" xmlns="http://www.w3.org/2000/svg">
<path d="M20.2771 45.5109C20.6307 45.8291 21.031 46.0911 21.4641 46.2878C21.5835 46.3455 21.7076 46.4004 21.8366 46.4524C22.9088 46.8911 24.0644 47.0883 25.2213 47.03H25.2791C25.7969 47.0021 26.3008 46.8517 26.7491 46.591C27.0678 46.3975 27.3081 46.0979 27.4278 45.7448C27.4759 45.607 27.5398 45.4752 27.6184 45.3521C27.864 44.9872 28.1617 44.6603 28.5021 44.3817C29.2501 43.7261 30.3128 43.0099 31.5114 42.1493C34.795 39.7985 39.1067 36.3734 40.8857 30.144C42.5896 24.1832 41.5557 16.1893 34.1134 13.7461L33.9401 13.6912C26.5585 11.3577 19.2837 14.91 16.9675 23.1118C14.7525 30.9526 19.0959 37.7509 19.8035 41.9038C19.9547 42.5894 19.9339 43.3018 19.7429 43.9774L19.7255 44.038C19.5782 44.5608 19.8122 45.069 20.2771 45.5109Z" fill="#FFAE00"/>
<path opacity="0.75" d="M21.1924 47.6827C21.1924 47.6827 25.3655 30.5859 22.5497 29.1997C19.7339 27.8135 19.3527 31.9953 21.2414 33.1793C23.7829 34.7764 28.2015 35.3135 28.9206 32.3129C29.4809 29.9766 26.5495 29.3441 25.7669 31.7613C25.2384 33.4017 26.2261 34.9092 28.3487 35.4146C31.9414 36.2666 34.4655 35.1258 33.3478 32.5267C32.7356 31.1029 30.8439 31.7036 30.4425 33.5172C30.0411 35.3309 24.8225 48.7311 24.8225 48.7311" stroke="white" stroke-width="3.06" stroke-linecap="round" stroke-linejoin="round"/>
<path d="M21.4955 53.0081L21.2067 52.9215C20.0871 52.6011 19.1406 51.8491 18.5752 50.831C18.0098 49.8129 17.8719 48.6119 18.1917 47.4921C18.1917 47.4921 19.1159 42.132 19.7859 41.9039C20.4559 41.6757 28.3631 43.9543 28.5364 44.4049C28.7097 44.8554 26.9393 49.9902 26.9393 49.9902C26.7811 50.5464 26.5145 51.066 26.155 51.5189C25.7955 51.9719 25.35 52.3494 24.8442 52.6298C24.3384 52.9102 23.7823 53.088 23.2076 53.1529C22.633 53.2178 22.0511 53.1686 21.4955 53.0081Z" fill="#3B3B4C"/>
<path d="M18.4514 44.5846L18.4718 44.4621C18.5281 44.1238 18.8479 43.8953 19.1862 43.9516L28.0174 45.4215C28.3557 45.4778 28.5843 45.7976 28.528 46.1359L28.5076 46.2584C28.4513 46.5967 28.1314 46.8253 27.7932 46.769L18.9619 45.2991C18.6237 45.2428 18.3951 44.9229 18.4514 44.5846Z" fill="#AAAAAF"/>
<path d="M17.9414 46.5511L17.9617 46.4286C18.0179 46.0903 18.3377 45.8616 18.676 45.9178L27.5077 47.3846C27.846 47.4408 28.0747 47.7606 28.0185 48.0989L27.9982 48.2214C27.942 48.5596 27.6222 48.7883 27.2839 48.7322L18.4522 47.2653C18.1139 47.2091 17.8852 46.8893 17.9414 46.5511Z" fill="#AAAAAF"/>
<path d="M17.4724 48.5321L17.4928 48.4096C17.5491 48.0713 17.869 47.8428 18.2072 47.8991L27.0384 49.369C27.3767 49.4253 27.6053 49.7452 27.549 50.0834L27.5286 50.2059C27.4723 50.5442 27.1524 50.7728 26.8142 50.7165L17.9829 49.2465C17.6447 49.1902 17.4161 48.8704 17.4724 48.5321Z" fill="#AAAAAF"/>
<g opacity="0.65">
<path opacity="0.65" d="M26.4052 18.9272C26.9395 18.8059 27.3294 18.6673 27.6817 18.5806C27.963 18.4994 28.2555 18.4633 28.5481 18.4738C28.7114 18.4878 28.8758 18.4695 29.032 18.42C29.1882 18.3705 29.3332 18.2907 29.4585 18.1852C29.5839 18.0797 29.6873 17.9505 29.7627 17.805C29.8381 17.6595 29.8842 17.5006 29.8983 17.3374C29.9123 17.1741 29.894 17.0097 29.8445 16.8535C29.795 16.6972 29.7152 16.5523 29.6096 16.4269C29.5041 16.3016 29.3749 16.1982 29.2295 16.1228C29.084 16.0473 28.9251 16.0013 28.7618 15.9872H28.7301C28.1688 15.9585 27.6068 16.0229 27.0666 16.1778C26.5958 16.302 26.1771 16.4493 25.8825 16.5157H25.8652C25.553 16.5946 25.2839 16.7922 25.1152 17.0665C24.9465 17.3408 24.8915 17.67 24.9618 17.9842C25.0322 18.2985 25.2224 18.5728 25.492 18.7489C25.7616 18.925 26.0892 18.989 26.4052 18.9272Z" fill="white"/>
<path opacity="0.65" d="M21.2733 25.6705C21.3993 24.643 21.6848 23.6413 22.1195 22.7017C22.57 21.7812 23.178 20.9466 23.9158 20.2354C24.1456 20.0106 24.2767 19.7037 24.2802 19.3823C24.2837 19.0608 24.1594 18.7511 23.9346 18.5214C23.7098 18.2916 23.4029 18.1605 23.0815 18.157C22.76 18.1535 22.4504 18.2778 22.2206 18.5026C21.2758 19.4019 20.4941 20.4582 19.9102 21.6245C19.3569 22.7908 18.9877 24.0359 18.8157 25.3153C18.7744 25.637 18.8611 25.962 19.0572 26.2203C19.2533 26.4786 19.5431 26.6494 19.864 26.696C20.185 26.7426 20.5113 26.6613 20.7728 26.4694C21.0343 26.2776 21.2099 25.9907 21.2618 25.6705H21.2733Z" fill="white"/>
</g>
<path opacity="0.12" d="M31.5138 42.1436C34.7974 39.7928 39.1091 36.3676 40.8881 30.1383C42.592 24.1775 41.5582 16.1836 34.1159 13.7404L33.9426 13.6855C41.2347 28.7029 38.2572 32.7115 31.5138 42.1436Z" fill="#E84E19"/>
<path d="M44.8304 32.2205L58.5483 33.4392C58.6551 33.4515 58.7625 33.4208 58.8467 33.3539C58.9309 33.287 58.9851 33.1894 58.9974 33.0826C59.0096 32.9757 58.9789 32.8684 58.912 32.7842C58.8452 32.7 58.7475 32.6458 58.6407 32.6335L45.0037 30.7217C44.8113 30.7058 44.6201 30.7642 44.4693 30.8848C44.3184 31.0053 44.2194 31.179 44.1925 31.3702C44.1655 31.5614 44.2127 31.7556 44.3243 31.9132C44.4359 32.0707 44.6036 32.1796 44.7929 32.2176L44.8304 32.2205Z" fill="white"/>
<path d="M45.8005 22.1617L58.7184 18.7799C58.7996 18.7582 58.8689 18.7054 58.9116 18.6331C58.9543 18.5607 58.9669 18.4744 58.9466 18.3929C58.9267 18.3147 58.8776 18.2472 58.8093 18.2042C58.7411 18.1612 58.6589 18.1461 58.5798 18.1619L45.4655 20.6917C45.2691 20.73 45.0959 20.8448 44.984 21.0108C44.8722 21.1768 44.8309 21.3804 44.8692 21.5769C44.9075 21.7734 45.0222 21.9466 45.1882 22.0584C45.3542 22.1702 45.5579 22.2116 45.7543 22.1733L45.8005 22.1617Z" fill="white"/>
<path d="M41.9942 13.7461L48.3998 6.74279C48.4549 6.68803 48.4861 6.6136 48.4863 6.53588C48.4866 6.45816 48.456 6.38352 48.4012 6.32837C48.3465 6.27322 48.272 6.24209 48.1943 6.24182C48.1166 6.24155 48.0419 6.27217 47.9868 6.32693L40.9315 12.6805C40.7944 12.8175 40.7151 13.0019 40.71 13.1956C40.7049 13.3893 40.7743 13.5777 40.9039 13.7217C41.0335 13.8658 41.2135 13.9546 41.4067 13.9699C41.5999 13.9852 41.7916 13.9258 41.9423 13.8039C41.9621 13.7871 41.9796 13.7676 41.9942 13.7461Z" fill="white"/>
<path d="M34.139 9.65681L35.427 0.614567C35.4331 0.571222 35.4304 0.527095 35.419 0.484825C35.4077 0.442556 35.3879 0.403003 35.361 0.368515C35.3341 0.334026 35.3005 0.30531 35.2622 0.284074C35.2239 0.262838 35.1818 0.249513 35.1382 0.244898C35.0576 0.234024 34.9758 0.253389 34.9086 0.29925C34.8414 0.345112 34.7936 0.414227 34.7743 0.493268L32.6459 9.37379C32.6096 9.56485 32.6482 9.76258 32.7538 9.92593C32.8593 10.0893 33.0237 10.2057 33.2129 10.2511C33.402 10.2964 33.6013 10.2671 33.7695 10.1694C33.9376 10.0717 34.0617 9.91291 34.1159 9.72612C34.1248 9.70344 34.1325 9.6803 34.139 9.65681Z" fill="white"/>
<path d="M26.495 9.21773L24.6582 0.265015C24.6456 0.18306 24.6009 0.10948 24.534 0.0604651C24.4671 0.0114503 24.3835 -0.00898399 24.3015 0.00365399C24.2196 0.016292 24.146 0.0609735 24.097 0.127861C24.048 0.194749 24.0275 0.278368 24.0402 0.360323L25.0019 9.45455C25.0229 9.65369 25.1223 9.83631 25.278 9.96223C25.4337 10.0882 25.633 10.1471 25.8321 10.126C26.0313 10.1049 26.2139 10.0056 26.3398 9.84992C26.4658 9.69421 26.5247 9.49485 26.5036 9.29571C26.5024 9.26956 26.4995 9.24351 26.495 9.21773Z" fill="white"/>
<path d="M18.2467 12.6458L10.3972 5.64533C10.3409 5.59057 10.2652 5.56041 10.1867 5.56149C10.1081 5.56257 10.0332 5.59481 9.97846 5.65111C9.9237 5.7074 9.89355 5.78315 9.89463 5.86168C9.89571 5.94022 9.92795 6.0151 9.98425 6.06986L17.2042 13.7259C17.2721 13.7981 17.3535 13.8563 17.4439 13.8971C17.5343 13.9378 17.6318 13.9604 17.7309 13.9635C17.83 13.9666 17.9287 13.9501 18.0214 13.915C18.1141 13.88 18.1991 13.827 18.2713 13.7591C18.3436 13.6912 18.4017 13.6098 18.4425 13.5194C18.4832 13.429 18.5058 13.3315 18.5089 13.2324C18.512 13.1333 18.4955 13.0346 18.4604 12.9419C18.4254 12.8491 18.3724 12.7642 18.3045 12.692C18.2785 12.6747 18.2612 12.6602 18.2467 12.6458Z" fill="white"/>
<path d="M14.683 20.7177L0.326868 15.5194C0.263187 15.5109 0.19848 15.5239 0.143021 15.5563C0.0875616 15.5888 0.0445137 15.6387 0.0206556 15.6984C-0.00320339 15.758 -0.00648594 15.8239 0.0113134 15.8857C0.0291119 15.9474 0.0669537 16.0014 0.118907 16.0392L14.1256 22.1039C14.3069 22.1704 14.5068 22.165 14.6843 22.0888C14.8618 22.0127 15.0034 21.8715 15.0802 21.6943C15.157 21.5171 15.1631 21.3173 15.0973 21.1357C15.0315 20.9541 14.8988 20.8046 14.7263 20.7177H14.683Z" fill="white"/>
</svg>
